<svg width="180" height="98" viewBox="0 0 180 98" fill="none" xmlns="http://www.w3.org/2000/svg">
<mask id="path-1-outside-1" maskUnits="userSpaceOnUse" x="0.0166016" y="-0.109619" width="180" height="98" fill="black">
<rect fill="white" x="0.0166016" y="-0.109619" width="180" height="98"/>
<path d="M6.48827 95.9589C5.33634 95.5754 4.13641 94.4727 2.88849 92.651C1.64056 90.7333 1.0166 89.0074 1.0166 87.4733L3.03248 81.4326L5.76831 72.8031C6.63226 71.5566 7.30422 70.0704 7.78419 68.3445C8.36016 66.5227 8.69613 65.468 8.79213 65.1803C9.75207 63.3585 11.672 58.9479 14.5518 51.9484L17.2876 45.3324C19.9754 39.5794 22.1833 34.4017 23.9112 29.7993L26.2151 24.4777L28.9509 18.1494C32.3107 9.99932 34.1826 5.25308 34.5666 3.91071C34.5666 3.14364 34.7105 2.56834 34.9985 2.18481C35.3825 1.80127 35.7665 1.60951 36.1505 1.60951C36.6304 1.13009 37.3984 0.890381 38.4543 0.890381C38.9343 0.890381 39.7023 1.65745 40.7582 3.19158C41.8141 4.62984 42.3421 5.87632 42.3421 6.93105C42.3421 8.56106 41.5741 11.5335 40.0382 15.8482C38.5023 20.0671 36.4385 24.7654 33.8466 29.9431C24.4392 50.1745 20.1194 60.6738 20.8874 61.4409C21.2714 61.2491 22.0873 60.8656 23.3352 60.2903C24.5832 59.6191 25.8791 58.8041 27.223 57.8452C28.087 57.3658 28.9029 56.8864 29.6709 56.407C30.4388 55.8317 31.1108 55.3523 31.6867 54.9687C34.6626 52.9552 36.4864 51.8525 37.1584 51.6607C37.7344 51.2772 38.8383 50.606 40.4702 49.6472C42.1981 48.4966 43.11 47.8733 43.206 47.7774C44.358 47.2021 45.3179 46.9145 46.0859 46.9145C46.6618 46.9145 47.1898 47.1063 47.6698 47.4898C48.1497 47.8733 48.7257 48.4486 49.3977 49.2157C49.9736 49.8869 50.2616 50.5581 50.2616 51.2293C50.2616 51.9004 49.8776 52.6196 49.1097 53.3866C48.3417 54.0578 47.0458 54.9687 45.2219 56.1193C43.974 56.9823 42.6781 57.7973 41.3341 58.5643C39.9902 59.3314 38.6943 60.0985 37.4464 60.8656C30.5348 65.0844 26.983 67.3377 26.791 67.6254C26.983 68.0089 27.415 68.8718 28.087 70.2142C28.8549 71.5566 29.5749 72.7072 30.2468 73.666L32.4067 77.4055C33.5586 79.0355 34.1346 80.0902 34.1346 80.5696C34.9985 82.9667 36.1505 84.8365 37.5904 86.1788C39.1263 87.5212 40.7582 88.1924 42.4861 88.1924C43.35 88.1924 44.358 87.9527 45.5099 87.4733C46.9498 86.8979 49.3189 84.3099 49.8026 83.2075C51.8185 79.2434 54.4088 84.3161 54.8888 85.8502C55.1767 86.4255 54.1538 88.1924 54.1538 88.48C54.1538 88.8636 51.4615 91.4524 50.1176 92.7948C47.6218 95.2877 45.0779 96.5343 42.4861 96.5343C41.6221 96.5343 40.6142 96.2945 39.4623 95.8151C38.0223 95.911 36.1985 94.9522 33.9906 92.9386C31.8787 90.925 28.9029 87.4253 25.0631 82.4394C25.0631 82.0558 24.5352 80.8093 23.4792 78.6999C23.0953 77.837 22.6633 77.0699 22.1833 76.3987C21.7033 75.6316 21.3674 75.1043 21.1754 74.8166C21.1754 74.4331 20.9354 73.9537 20.4554 73.3784C20.0714 72.7072 19.7835 72.1798 19.5915 71.7963C18.5355 71.5086 17.6716 71.6045 16.9996 72.0839C16.4237 72.5634 15.8477 73.2345 15.2717 74.0975C14.7918 74.9604 14.4078 75.5837 14.1198 75.9672C13.1599 78.4602 12.1999 81.5285 11.24 85.172C10.28 88.7197 9.94406 91.0209 10.232 92.0757C10.232 93.6098 9.99206 94.6645 9.51208 95.2398C9.03211 95.7192 8.02417 95.9589 6.48827 95.9589Z"/>
<path d="M52.9458 91.5004C52.6578 90.9251 52.1778 90.3498 51.5058 89.7745C50.9299 89.1033 50.6419 88.6718 50.6419 88.48C50.6419 87.4253 50.4019 86.6103 49.9219 86.035C49.73 85.8432 49.634 85.4118 49.634 84.7406C49.634 83.2064 50.3539 80.6176 51.7938 76.974C53.3297 73.2345 55.2976 69.2074 57.6975 64.8927C58.2734 64.3174 58.9934 63.3106 59.8573 61.8723C60.8173 60.4341 61.4412 59.6191 61.7292 59.4273C61.7292 59.0438 61.8732 58.7082 62.1612 58.4205C62.4492 58.037 62.7852 57.8452 63.1691 57.8452V56.9823C63.1691 56.1193 64.753 54.0578 67.9208 50.7978C71.0886 47.4419 73.6805 45.1407 75.6964 43.8942C78.0962 42.2641 80.5441 41.4491 83.0399 41.4491C84.7678 41.4491 86.2557 41.9286 87.5036 42.8874C87.9836 43.4627 90.1915 45.5242 94.1272 49.0719L99.4549 53.8181L96.8631 61.0094C95.9991 63.5982 95.5672 65.9474 95.5672 68.0568C95.5672 71.7004 96.6231 75.2001 98.735 78.5561C99.2149 79.6108 100.175 80.6176 101.615 81.5764C103.055 82.5352 105.93 84.3091 107.143 85.172C109.096 87.1856 112.765 88.4922 112.765 90.2181C112.765 92.1357 114.86 91.5596 113.133 91.9432C112.749 92.0391 111.99 94.072 111.222 94.072C105.636 93.5139 94.2232 86.0829 90.0955 78.1246C89.7115 77.5493 89.1835 76.4946 88.5116 74.9604C87.9356 73.4263 87.5996 72.3716 87.5036 71.7963C86.9277 72.5634 86.2077 73.4743 85.3438 74.529C84.4798 75.5837 83.6639 76.4946 82.8959 77.2616C72.4326 87.713 64.1771 92.9386 58.1294 92.9386C56.2096 92.9386 54.4817 92.4592 52.9458 91.5004ZM58.1294 83.4461C58.1294 83.9256 58.6094 84.0694 59.5694 83.8776C60.6253 83.6859 61.8732 83.2064 63.3131 82.4394C64.849 81.6723 66.3849 80.6655 67.9208 79.419C76.1763 72.3237 82.128 66.1392 85.7757 60.8656L88.9436 55.6878C87.9836 53.6743 86.9757 52.236 85.9197 51.3731C84.8638 50.4142 83.9039 49.9348 83.0399 49.9348C81.024 49.9348 77.8562 52.4757 73.5365 57.5576C69.2168 62.5435 65.281 68.4404 61.7292 75.2481C60.8653 76.8781 60.0973 78.5561 59.4254 80.282C58.7534 81.912 58.3214 82.9667 58.1294 83.4461Z"/>
<path d="M117.665 95.5275C114.401 95.5275 110.748 94.717 108.349 93.3746C105.949 92.0323 105.186 90.3497 104.418 88.0485C103.746 86.3226 103.41 85.3638 103.41 85.172C103.41 84.5967 103.746 84.1653 104.418 83.8776C105.09 83.8776 105.858 84.1653 106.722 84.7406C107.682 85.3159 108.166 85.7545 108.943 86.2173C110.854 87.3551 112.433 87.9047 114.929 87.9047C116.849 87.9047 118.577 87.5212 120.113 86.7541C121.745 85.9871 122.657 85.0762 122.849 84.0214C122.849 83.542 122.369 81.8641 121.409 78.9875C119.009 75.5357 117.137 72.036 115.793 68.4883C114.545 64.8447 113.921 61.7764 113.921 59.2835C113.921 57.4617 114.449 55.592 115.505 53.6743C116.561 51.7566 118.001 50.1266 119.825 48.7842C122.225 46.2913 125.105 44.038 128.464 42.0244C131.92 40.0109 135.04 38.6206 137.824 37.8535C138.976 37.8535 140.368 37.9973 142 38.285C143.728 38.5726 144.927 38.9082 145.599 39.2918C146.655 39.6753 147.663 40.73 148.623 42.4559C149.583 44.1818 150.063 45.8118 150.063 47.346C150.063 48.8801 149.247 50.9896 147.615 53.6743C147.423 54.3455 147.039 55.2564 146.463 56.407C145.887 57.5576 145.599 58.2767 145.599 58.5643C145.215 59.5232 144.591 60.0026 143.728 60.0026C142.864 60.0026 142 59.6191 141.136 58.852C140.368 57.9891 139.744 56.9823 139.264 55.8317C138.976 54.6811 138.832 53.6743 138.832 52.8113C138.832 51.6607 139.216 50.5101 139.984 49.3595C141.04 48.3048 141.568 47.5857 141.568 47.2021C141.568 46.8186 141.04 46.6268 139.984 46.6268C138.832 46.6268 136.624 47.5377 133.36 49.3595C130.096 51.1813 127.505 53.099 125.585 55.1125C123.857 56.7426 122.801 57.9891 122.417 58.852C122.033 59.6191 121.841 60.8176 121.841 62.4476C121.841 63.8859 122.129 65.6118 122.705 67.6254C123.377 69.543 124.049 70.8374 124.721 71.5086C124.913 71.8922 125.297 72.7072 125.873 73.9537C126.545 75.2002 127.313 76.3987 128.176 77.5493C130.096 81.8641 131.056 85.22 131.056 87.6171C131.056 90.3977 129.952 92.4113 127.745 93.6577C125.633 94.9042 122.273 95.5275 117.665 95.5275Z"/>
<path d="M153.065 97.1096C148.937 97.1096 145.529 95.5754 142.841 92.5071C140.153 89.4389 138.809 85.6035 138.809 81.0011C138.809 76.3987 139.817 71.3648 141.833 65.8994C143.945 60.3382 146.633 55.3523 149.897 50.9416C153.161 46.531 156.472 43.5586 159.832 42.0244C161.752 40.9697 163.912 40.4424 166.312 40.4424C168.136 40.4424 170.199 40.9697 172.503 42.0244C174.135 42.6956 175.383 43.5106 176.247 44.4695C177.111 45.4283 177.879 46.9145 178.551 48.928C178.839 50.654 178.983 51.8525 178.983 52.5237C178.983 53.099 178.743 54.3455 178.263 56.2631C177.111 59.8108 175.575 62.8312 173.655 65.3241C171.831 67.7212 169.432 69.7827 166.456 71.5086C164.92 72.4675 163 72.9469 160.696 72.9469C158.68 72.9469 156.76 72.6113 154.936 71.9401C153.209 71.173 151.865 70.0704 150.905 68.6321L149.897 67.4815L149.465 68.6321C147.449 73.8098 146.441 78.2205 146.441 81.8641C146.441 84.357 146.921 86.3706 147.881 87.9047C148.553 88.9594 150.185 89.4868 152.777 89.4868C154.696 89.4868 156.088 89.295 156.952 88.9115C158.392 88.4321 159.64 87.8568 160.696 87.1856C161.848 86.4185 162.952 85.6515 164.008 84.8844L164.584 84.5967H164.44C165.592 84.0214 166.552 83.4941 167.32 83.0147C168.088 82.5352 168.616 82.1997 168.904 82.0079C169.096 82.0079 169.288 81.96 169.48 81.8641C169.672 81.7682 169.864 81.5764 170.055 81.2888C170.919 80.9052 171.927 81.0491 173.079 81.7202C174.231 82.3914 174.807 83.2544 174.807 84.3091C174.615 85.0762 173.751 86.3226 172.215 88.0485C170.679 89.7744 169.528 90.6853 168.76 90.7812C168.664 90.7812 168.328 90.9251 167.752 91.2127C167.176 91.5004 166.792 91.7401 166.6 91.9318H166.744C165.88 93.0824 165.016 93.6577 164.152 93.6577H163C162.616 94.4248 161.32 95.1919 159.112 95.9589C157 96.726 154.984 97.1096 153.065 97.1096ZM159.544 65.468C162.424 65.468 165.064 63.838 167.464 60.5779C169.768 57.5096 170.919 54.4414 170.919 51.3731C170.919 49.7431 170.583 48.5925 169.912 47.9213C169.336 47.6336 168.808 47.4898 168.328 47.4898C167.848 47.4898 167.032 47.6336 165.88 47.9213C164.632 48.2089 162.712 49.5513 160.12 51.9484C157.528 54.2496 155.608 56.3111 154.36 58.1329L152.489 61.1532C153.257 60.8656 153.976 60.7217 154.648 60.7217C155.416 60.6258 155.848 60.6738 155.944 60.8656C155.944 62.2079 156.28 63.3106 156.952 64.1735C157.624 65.0365 158.488 65.468 159.544 65.468Z"/>
</mask>
<path d="M6.48827 95.9589C5.33634 95.5754 4.13641 94.4727 2.88849 92.651C1.64056 90.7333 1.0166 89.0074 1.0166 87.4733L3.03248 81.4326L5.76831 72.8031C6.63226 71.5566 7.30422 70.0704 7.78419 68.3445C8.36016 66.5227 8.69613 65.468 8.79213 65.1803C9.75207 63.3585 11.672 58.9479 14.5518 51.9484L17.2876 45.3324C19.9754 39.5794 22.1833 34.4017 23.9112 29.7993L26.2151 24.4777L28.9509 18.1494C32.3107 9.99932 34.1826 5.25308 34.5666 3.91071C34.5666 3.14364 34.7105 2.56834 34.9985 2.18481C35.3825 1.80127 35.7665 1.60951 36.1505 1.60951C36.6304 1.13009 37.3984 0.890381 38.4543 0.890381C38.9343 0.890381 39.7023 1.65745 40.7582 3.19158C41.8141 4.62984 42.3421 5.87632 42.3421 6.93105C42.3421 8.56106 41.5741 11.5335 40.0382 15.8482C38.5023 20.0671 36.4385 24.7654 33.8466 29.9431C24.4392 50.1745 20.1194 60.6738 20.8874 61.4409C21.2714 61.2491 22.0873 60.8656 23.3352 60.2903C24.5832 59.6191 25.8791 58.8041 27.223 57.8452C28.087 57.3658 28.9029 56.8864 29.6709 56.407C30.4388 55.8317 31.1108 55.3523 31.6867 54.9687C34.6626 52.9552 36.4864 51.8525 37.1584 51.6607C37.7344 51.2772 38.8383 50.606 40.4702 49.6472C42.1981 48.4966 43.11 47.8733 43.206 47.7774C44.358 47.2021 45.3179 46.9145 46.0859 46.9145C46.6618 46.9145 47.1898 47.1063 47.6698 47.4898C48.1497 47.8733 48.7257 48.4486 49.3977 49.2157C49.9736 49.8869 50.2616 50.5581 50.2616 51.2293C50.2616 51.9004 49.8776 52.6196 49.1097 53.3866C48.3417 54.0578 47.0458 54.9687 45.2219 56.1193C43.974 56.9823 42.6781 57.7973 41.3341 58.5643C39.9902 59.3314 38.6943 60.0985 37.4464 60.8656C30.5348 65.0844 26.983 67.3377 26.791 67.6254C26.983 68.0089 27.415 68.8718 28.087 70.2142C28.8549 71.5566 29.5749 72.7072 30.2468 73.666L32.4067 77.4055C33.5586 79.0355 34.1346 80.0902 34.1346 80.5696C34.9985 82.9667 36.1505 84.8365 37.5904 86.1788C39.1263 87.5212 40.7582 88.1924 42.4861 88.1924C43.35 88.1924 44.358 87.9527 45.5099 87.4733C46.9498 86.8979 49.3189 84.3099 49.8026 83.2075C51.8185 79.2434 54.4088 84.3161 54.8888 85.8502C55.1767 86.4255 54.1538 88.1924 54.1538 88.48C54.1538 88.8636 51.4615 91.4524 50.1176 92.7948C47.6218 95.2877 45.0779 96.5343 42.4861 96.5343C41.6221 96.5343 40.6142 96.2945 39.4623 95.8151C38.0223 95.911 36.1985 94.9522 33.9906 92.9386C31.8787 90.925 28.9029 87.4253 25.0631 82.4394C25.0631 82.0558 24.5352 80.8093 23.4792 78.6999C23.0953 77.837 22.6633 77.0699 22.1833 76.3987C21.7033 75.6316 21.3674 75.1043 21.1754 74.8166C21.1754 74.4331 20.9354 73.9537 20.4554 73.3784C20.0714 72.7072 19.7835 72.1798 19.5915 71.7963C18.5355 71.5086 17.6716 71.6045 16.9996 72.0839C16.4237 72.5634 15.8477 73.2345 15.2717 74.0975C14.7918 74.9604 14.4078 75.5837 14.1198 75.9672C13.1599 78.4602 12.1999 81.5285 11.24 85.172C10.28 88.7197 9.94406 91.0209 10.232 92.0757C10.232 93.6098 9.99206 94.6645 9.51208 95.2398C9.03211 95.7192 8.02417 95.9589 6.48827 95.9589Z" stroke="#05003A" mask="url(#path-1-outside-1)"/>
<path d="M52.9458 91.5004C52.6578 90.9251 52.1778 90.3498 51.5058 89.7745C50.9299 89.1033 50.6419 88.6718 50.6419 88.48C50.6419 87.4253 50.4019 86.6103 49.9219 86.035C49.73 85.8432 49.634 85.4118 49.634 84.7406C49.634 83.2064 50.3539 80.6176 51.7938 76.974C53.3297 73.2345 55.2976 69.2074 57.6975 64.8927C58.2734 64.3174 58.9934 63.3106 59.8573 61.8723C60.8173 60.4341 61.4412 59.6191 61.7292 59.4273C61.7292 59.0438 61.8732 58.7082 62.1612 58.4205C62.4492 58.037 62.7852 57.8452 63.1691 57.8452V56.9823C63.1691 56.1193 64.753 54.0578 67.9208 50.7978C71.0886 47.4419 73.6805 45.1407 75.6964 43.8942C78.0962 42.2641 80.5441 41.4491 83.0399 41.4491C84.7678 41.4491 86.2557 41.9286 87.5036 42.8874C87.9836 43.4627 90.1915 45.5242 94.1272 49.0719L99.4549 53.8181L96.8631 61.0094C95.9991 63.5982 95.5672 65.9474 95.5672 68.0568C95.5672 71.7004 96.6231 75.2001 98.735 78.5561C99.2149 79.6108 100.175 80.6176 101.615 81.5764C103.055 82.5352 105.93 84.3091 107.143 85.172C109.096 87.1856 112.765 88.4922 112.765 90.2181C112.765 92.1357 114.86 91.5596 113.133 91.9432C112.749 92.0391 111.99 94.072 111.222 94.072C105.636 93.5139 94.2232 86.0829 90.0955 78.1246C89.7115 77.5493 89.1835 76.4946 88.5116 74.9604C87.9356 73.4263 87.5996 72.3716 87.5036 71.7963C86.9277 72.5634 86.2077 73.4743 85.3438 74.529C84.4798 75.5837 83.6639 76.4946 82.8959 77.2616C72.4326 87.713 64.1771 92.9386 58.1294 92.9386C56.2096 92.9386 54.4817 92.4592 52.9458 91.5004ZM58.1294 83.4461C58.1294 83.9256 58.6094 84.0694 59.5694 83.8776C60.6253 83.6859 61.8732 83.2064 63.3131 82.4394C64.849 81.6723 66.3849 80.6655 67.9208 79.419C76.1763 72.3237 82.128 66.1392 85.7757 60.8656L88.9436 55.6878C87.9836 53.6743 86.9757 52.236 85.9197 51.3731C84.8638 50.4142 83.9039 49.9348 83.0399 49.9348C81.024 49.9348 77.8562 52.4757 73.5365 57.5576C69.2168 62.5435 65.281 68.4404 61.7292 75.2481C60.8653 76.8781 60.0973 78.5561 59.4254 80.282C58.7534 81.912 58.3214 82.9667 58.1294 83.4461Z" stroke="#05003A" mask="url(#path-1-outside-1)"/>
<path d="M117.665 95.5275C114.401 95.5275 110.748 94.717 108.349 93.3746C105.949 92.0323 105.186 90.3497 104.418 88.0485C103.746 86.3226 103.41 85.3638 103.41 85.172C103.41 84.5967 103.746 84.1653 104.418 83.8776C105.09 83.8776 105.858 84.1653 106.722 84.7406C107.682 85.3159 108.166 85.7545 108.943 86.2173C110.854 87.3551 112.433 87.9047 114.929 87.9047C116.849 87.9047 118.577 87.5212 120.113 86.7541C121.745 85.9871 122.657 85.0762 122.849 84.0214C122.849 83.542 122.369 81.8641 121.409 78.9875C119.009 75.5357 117.137 72.036 115.793 68.4883C114.545 64.8447 113.921 61.7764 113.921 59.2835C113.921 57.4617 114.449 55.592 115.505 53.6743C116.561 51.7566 118.001 50.1266 119.825 48.7842C122.225 46.2913 125.105 44.038 128.464 42.0244C131.92 40.0109 135.04 38.6206 137.824 37.8535C138.976 37.8535 140.368 37.9973 142 38.285C143.728 38.5726 144.927 38.9082 145.599 39.2918C146.655 39.6753 147.663 40.73 148.623 42.4559C149.583 44.1818 150.063 45.8118 150.063 47.346C150.063 48.8801 149.247 50.9896 147.615 53.6743C147.423 54.3455 147.039 55.2564 146.463 56.407C145.887 57.5576 145.599 58.2767 145.599 58.5643C145.215 59.5232 144.591 60.0026 143.728 60.0026C142.864 60.0026 142 59.6191 141.136 58.852C140.368 57.9891 139.744 56.9823 139.264 55.8317C138.976 54.6811 138.832 53.6743 138.832 52.8113C138.832 51.6607 139.216 50.5101 139.984 49.3595C141.04 48.3048 141.568 47.5857 141.568 47.2021C141.568 46.8186 141.04 46.6268 139.984 46.6268C138.832 46.6268 136.624 47.5377 133.36 49.3595C130.096 51.1813 127.505 53.099 125.585 55.1125C123.857 56.7426 122.801 57.9891 122.417 58.852C122.033 59.6191 121.841 60.8176 121.841 62.4476C121.841 63.8859 122.129 65.6118 122.705 67.6254C123.377 69.543 124.049 70.8374 124.721 71.5086C124.913 71.8922 125.297 72.7072 125.873 73.9537C126.545 75.2002 127.313 76.3987 128.176 77.5493C130.096 81.8641 131.056 85.22 131.056 87.6171C131.056 90.3977 129.952 92.4113 127.745 93.6577C125.633 94.9042 122.273 95.5275 117.665 95.5275Z" stroke="#05003A" mask="url(#path-1-outside-1)"/>
<path d="M153.065 97.1096C148.937 97.1096 145.529 95.5754 142.841 92.5071C140.153 89.4389 138.809 85.6035 138.809 81.0011C138.809 76.3987 139.817 71.3648 141.833 65.8994C143.945 60.3382 146.633 55.3523 149.897 50.9416C153.161 46.531 156.472 43.5586 159.832 42.0244C161.752 40.9697 163.912 40.4424 166.312 40.4424C168.136 40.4424 170.199 40.9697 172.503 42.0244C174.135 42.6956 175.383 43.5106 176.247 44.4695C177.111 45.4283 177.879 46.9145 178.551 48.928C178.839 50.654 178.983 51.8525 178.983 52.5237C178.983 53.099 178.743 54.3455 178.263 56.2631C177.111 59.8108 175.575 62.8312 173.655 65.3241C171.831 67.7212 169.432 69.7827 166.456 71.5086C164.92 72.4675 163 72.9469 160.696 72.9469C158.68 72.9469 156.76 72.6113 154.936 71.9401C153.209 71.173 151.865 70.0704 150.905 68.6321L149.897 67.4815L149.465 68.6321C147.449 73.8098 146.441 78.2205 146.441 81.8641C146.441 84.357 146.921 86.3706 147.881 87.9047C148.553 88.9594 150.185 89.4868 152.777 89.4868C154.696 89.4868 156.088 89.295 156.952 88.9115C158.392 88.4321 159.64 87.8568 160.696 87.1856C161.848 86.4185 162.952 85.6515 164.008 84.8844L164.584 84.5967H164.44C165.592 84.0214 166.552 83.4941 167.32 83.0147C168.088 82.5352 168.616 82.1997 168.904 82.0079C169.096 82.0079 169.288 81.96 169.48 81.8641C169.672 81.7682 169.864 81.5764 170.055 81.2888C170.919 80.9052 171.927 81.0491 173.079 81.7202C174.231 82.3914 174.807 83.2544 174.807 84.3091C174.615 85.0762 173.751 86.3226 172.215 88.0485C170.679 89.7744 169.528 90.6853 168.76 90.7812C168.664 90.7812 168.328 90.9251 167.752 91.2127C167.176 91.5004 166.792 91.7401 166.6 91.9318H166.744C165.88 93.0824 165.016 93.6577 164.152 93.6577H163C162.616 94.4248 161.32 95.1919 159.112 95.9589C157 96.726 154.984 97.1096 153.065 97.1096ZM159.544 65.468C162.424 65.468 165.064 63.838 167.464 60.5779C169.768 57.5096 170.919 54.4414 170.919 51.3731C170.919 49.7431 170.583 48.5925 169.912 47.9213C169.336 47.6336 168.808 47.4898 168.328 47.4898C167.848 47.4898 167.032 47.6336 165.88 47.9213C164.632 48.2089 162.712 49.5513 160.12 51.9484C157.528 54.2496 155.608 56.3111 154.36 58.1329L152.489 61.1532C153.257 60.8656 153.976 60.7217 154.648 60.7217C155.416 60.6258 155.848 60.6738 155.944 60.8656C155.944 62.2079 156.28 63.3106 156.952 64.1735C157.624 65.0365 158.488 65.468 159.544 65.468Z" stroke="#05003A" mask="url(#path-1-outside-1)"/>
</svg>
