<svg width="80" height="11" viewBox="0 0 80 11" fill="none" xmlns="http://www.w3.org/2000/svg">
<path d="M72.2203 0.228417H73.9939L78.3742 7.29593H78.4011V0.228417H80V9.82197H78.2264L73.8596 2.76789H73.8193V9.82197H72.2203V0.228417Z" fill="#888888"/>
<path d="M63.7499 0.228417H70.6561V1.67954H65.4294V4.19214H70.2665V5.56265H65.4294V8.37084H70.7502V9.82197H63.7499V0.228417Z" fill="#888888"/>
<path d="M56.034 6.62412C56.034 6.99138 56.0967 7.30489 56.2221 7.56466C56.3475 7.82443 56.5222 8.03941 56.7462 8.20961C56.9701 8.37084 57.2254 8.49177 57.512 8.57239C57.8076 8.64405 58.1256 8.67988 58.466 8.67988C58.8333 8.67988 59.1468 8.63957 59.4066 8.55895C59.6663 8.46937 59.8768 8.3574 60.0381 8.22304C60.1993 8.08868 60.3158 7.9364 60.3874 7.76621C60.4591 7.58705 60.4949 7.4079 60.4949 7.22875C60.4949 6.86149 60.4098 6.59277 60.2396 6.42257C60.0784 6.24342 59.8992 6.11802 59.7022 6.04635C59.3618 5.92095 58.9632 5.8045 58.5063 5.69701C58.0584 5.58056 57.5031 5.43276 56.8402 5.25361C56.4282 5.14612 56.0833 5.00728 55.8056 4.83708C55.5369 4.65793 55.3219 4.46087 55.1607 4.24588C54.9994 4.0309 54.883 3.80248 54.8113 3.56063C54.7486 3.31878 54.7173 3.07244 54.7173 2.82163C54.7173 2.33792 54.8158 1.9214 55.0129 1.57205C55.2189 1.21375 55.4876 0.91815 55.8191 0.685253C56.1505 0.452357 56.5267 0.282163 56.9477 0.174672C57.3687 0.0582239 57.7942 0 58.2242 0C58.7258 0 59.1961 0.0671816 59.635 0.201545C60.0829 0.326951 60.4725 0.519538 60.8039 0.779307C61.1443 1.03908 61.4131 1.36155 61.6101 1.74672C61.8072 2.12294 61.9057 2.56186 61.9057 3.06349H60.2262C60.1814 2.44541 59.9709 2.01097 59.5947 1.76016C59.2185 1.50039 58.7392 1.37051 58.157 1.37051C57.9599 1.37051 57.7584 1.3929 57.5523 1.43769C57.3463 1.47352 57.1582 1.5407 56.988 1.63923C56.8178 1.72881 56.6745 1.85422 56.5581 2.01545C56.4506 2.17669 56.3968 2.37823 56.3968 2.62009C56.3968 2.96047 56.4998 3.2292 56.7059 3.42627C56.9208 3.61438 57.1985 3.7577 57.5389 3.85623C57.5747 3.86519 57.7136 3.9055 57.9554 3.97716C58.2062 4.03986 58.4839 4.11152 58.7885 4.19214C59.093 4.27276 59.3886 4.35337 59.6753 4.43399C59.9709 4.50565 60.1814 4.5594 60.3068 4.59523C60.6203 4.69376 60.8935 4.82813 61.1264 4.99832C61.3593 5.16851 61.5519 5.36558 61.7042 5.58952C61.8654 5.8045 61.9819 6.0374 62.0535 6.28821C62.1341 6.53902 62.1744 6.78983 62.1744 7.04064C62.1744 7.5781 62.0625 8.03941 61.8385 8.42459C61.6236 8.8008 61.3369 9.10984 60.9786 9.35169C60.6203 9.59355 60.2127 9.76822 59.7559 9.87571C59.2991 9.99216 58.8333 10.0504 58.3585 10.0504C57.8121 10.0504 57.2971 9.9832 56.8133 9.84884C56.3296 9.71448 55.9086 9.50845 55.5503 9.23077C55.192 8.95308 54.9054 8.59926 54.6904 8.1693C54.4754 7.73038 54.3635 7.21532 54.3545 6.62412H56.034Z" fill="#888888"/>
<path d="M47.2164 6.62412C47.2164 6.99138 47.2791 7.30489 47.4045 7.56466C47.53 7.82443 47.7046 8.03941 47.9286 8.20961C48.1525 8.37084 48.4078 8.49177 48.6944 8.57239C48.99 8.64405 49.308 8.67988 49.6484 8.67988C50.0157 8.67988 50.3292 8.63957 50.589 8.55895C50.8487 8.46937 51.0592 8.3574 51.2205 8.22304C51.3817 8.08868 51.4982 7.9364 51.5698 7.76621C51.6415 7.58705 51.6773 7.4079 51.6773 7.22875C51.6773 6.86149 51.5922 6.59277 51.422 6.42257C51.2608 6.24342 51.0816 6.11802 50.8846 6.04635C50.5442 5.92095 50.1456 5.8045 49.6887 5.69701C49.2408 5.58056 48.6855 5.43276 48.0226 5.25361C47.6106 5.14612 47.2657 5.00728 46.988 4.83708C46.7193 4.65793 46.5043 4.46087 46.3431 4.24588C46.1818 4.0309 46.0654 3.80249 45.9937 3.56063C45.931 3.31878 45.8997 3.07244 45.8997 2.82163C45.8997 2.33792 45.9982 1.9214 46.1953 1.57205C46.4013 1.21375 46.67 0.91815 47.0015 0.685254C47.3329 0.452357 47.7091 0.282163 48.1301 0.174672C48.5511 0.0582241 48.9766 1.48483e-07 49.4066 1.48483e-07C49.9082 1.48483e-07 50.3785 0.0671818 50.8174 0.201545C51.2653 0.326951 51.6549 0.519538 51.9863 0.779308C52.3267 1.03908 52.5955 1.36155 52.7925 1.74672C52.9896 2.12294 53.0881 2.56186 53.0881 3.06349H51.4086C51.3638 2.44541 51.1533 2.01097 50.7771 1.76016C50.4009 1.50039 49.9216 1.37051 49.3394 1.37051C49.1423 1.37051 48.9408 1.3929 48.7347 1.43769C48.5287 1.47352 48.3406 1.5407 48.1704 1.63923C48.0002 1.72881 47.8569 1.85422 47.7405 2.01545C47.633 2.17669 47.5792 2.37823 47.5792 2.62009C47.5792 2.96047 47.6822 3.2292 47.8883 3.42627C48.1032 3.61438 48.3809 3.7577 48.7213 3.85623C48.7571 3.86519 48.896 3.9055 49.1378 3.97716C49.3886 4.03986 49.6663 4.11152 49.9709 4.19214C50.2754 4.27276 50.571 4.35337 50.8577 4.43399C51.1533 4.50565 51.3638 4.5594 51.4892 4.59523C51.8027 4.69376 52.0759 4.82813 52.3088 4.99832C52.5417 5.16851 52.7343 5.36558 52.8866 5.58952C53.0478 5.8045 53.1643 6.0374 53.2359 6.28821C53.3165 6.53902 53.3568 6.78983 53.3568 7.04064C53.3568 7.5781 53.2449 8.03941 53.0209 8.42459C52.806 8.8008 52.5193 9.10984 52.161 9.35169C51.8027 9.59355 51.3951 9.76822 50.9383 9.87571C50.4815 9.99216 50.0157 10.0504 49.5409 10.0504C48.9945 10.0504 48.4795 9.9832 47.9957 9.84884C47.512 9.71448 47.091 9.50845 46.7327 9.23077C46.3744 8.95308 46.0878 8.59926 45.8728 8.1693C45.6578 7.73038 45.5459 7.21532 45.5369 6.62412H47.2164Z" fill="#888888"/>
<path d="M37.437 0.228417H44.3433V1.67954H39.1166V4.19214H43.9536V5.56265H39.1166V8.37084H44.4374V9.82197H37.437V0.228417Z" fill="#888888"/>
<path d="M27.9633 0.234576H32.5451C33.6021 0.234576 34.3948 0.462994 34.9233 0.91983C35.4518 1.37667 35.716 2.01265 35.716 2.82779C35.716 3.28463 35.6489 3.66532 35.5145 3.96988C35.3801 4.26548 35.2234 4.50733 35.0442 4.69544C34.8651 4.87459 34.6859 5.00448 34.5068 5.0851C34.3366 5.16571 34.2112 5.21946 34.1305 5.24633V5.2732C34.2739 5.29112 34.4261 5.33591 34.5874 5.40757C34.7576 5.47923 34.9143 5.59568 35.0577 5.75691C35.201 5.90919 35.3174 6.11074 35.407 6.36155C35.5055 6.61236 35.5548 6.92588 35.5548 7.30209C35.5548 7.86642 35.5498 8.00861 35.5498 8.84838C35.5498 9.26827 35.5448 9.33825 35.5498 9.82813H34.0231C34.0231 9.60132 34.0231 9.3554 34.0231 9.05833C34.0231 8.79663 34.0231 8.65021 34.0231 8.41731C34.0231 7.97839 33.9962 7.60217 33.9424 7.28866C33.8887 6.96619 33.7902 6.70194 33.6468 6.49591C33.5035 6.28093 33.3065 6.12417 33.0556 6.02564C32.8138 5.92711 32.5003 5.87784 32.1151 5.87784H29.6428V9.82813H27.9633V0.234576ZM29.6428 4.60139H32.3973C32.9347 4.60139 33.3423 4.47598 33.62 4.22517C33.8977 3.9654 34.0365 3.58023 34.0365 3.06964C34.0365 2.76509 33.9917 2.51876 33.9021 2.33065C33.8126 2.13358 33.6871 1.9813 33.5259 1.87381C33.3736 1.76632 33.1945 1.69466 32.9885 1.65883C32.7914 1.623 32.5854 1.60508 32.3704 1.60508H29.6428V4.60139Z" fill="#888888"/>
<path d="M19.0471 0.228417H23.2796C23.9604 0.228417 24.5157 0.326951 24.9457 0.524017C25.3756 0.721084 25.7071 0.967417 25.94 1.26302C26.1729 1.55862 26.3296 1.88109 26.4102 2.23043C26.4998 2.57978 26.5446 2.90225 26.5446 3.19785C26.5446 3.49345 26.4998 3.81592 26.4102 4.16527C26.3296 4.50565 26.1729 4.82365 25.94 5.11925C25.7071 5.41485 25.3756 5.66118 24.9457 5.85825C24.5157 6.04635 23.9604 6.14041 23.2796 6.14041H20.7267V9.82197H19.0471V0.228417ZM20.7267 4.7699H23.1855C23.3736 4.7699 23.5662 4.74303 23.7633 4.68928C23.9604 4.63554 24.1395 4.55044 24.3007 4.43399C24.4709 4.30859 24.6053 4.14735 24.7038 3.95028C24.8113 3.74426 24.8651 3.48897 24.8651 3.18441C24.8651 2.8709 24.8203 2.61113 24.7307 2.4051C24.6411 2.19908 24.5202 2.03785 24.3679 1.9214C24.2156 1.79599 24.041 1.71089 23.8439 1.66611C23.6468 1.62132 23.4363 1.59892 23.2124 1.59892H20.7267V4.7699Z" fill="#888888"/>
<path d="M12.5887 6.05979L8.98779 0.228417H10.9361L13.4755 4.52805L15.9747 0.228417H17.8558L14.2683 6.05979V9.82197H12.5887V6.05979Z" fill="#888888"/>
<path d="M0.429963 0.228417H7.7259V1.50487L2.13638 8.37084H7.86026V9.82197H0V8.45146L5.58952 1.67954H0.429963V0.228417Z" fill="#888888"/>
</svg>
